<?xml version="1.0" encoding="utf-8"?>
<!-- Generator: Adobe Illustrator 23.0.1, SVG Export Plug-In . SVG Version: 6.00 Build 0)  -->
<svg version="1.1" id="Layer_1" xmlns="http://www.w3.org/2000/svg" xmlns:xlink="http://www.w3.org/1999/xlink" x="0px" y="0px"
	 viewBox="0 0 220 170" style="enable-background:new 0 0 220 170;" xml:space="preserve">
<g>
	<g>
		<path d="M17.1,20.6h2.4l13.9,23.2l3.7,6.6h0.2C37.2,47.2,37,44,37,40.8V20.6h2.2v33h-2.4L22.9,30.3l-3.7-6.6H19
			c0.1,3.2,0.3,6.1,0.3,9.3v20.5h-2.2V20.6z"/>
		<path d="M46.8,37c0-10.4,5.7-17,13.6-17c7.9,0,13.6,6.5,13.6,17c0,10.4-5.7,17.2-13.6,17.2C52.4,54.2,46.8,47.4,46.8,37z M71.5,37
			c0-9.1-4.5-14.9-11.2-14.9S49.2,27.9,49.2,37s4.5,15.1,11.2,15.1S71.5,46.1,71.5,37z"/>
		<path d="M87.5,22.6H77v-2h23.3v2H89.8v31h-2.3V22.6z"/>
		<path d="M106.6,20.6h2.3v14.4h17.6V20.6h2.3v33h-2.3V37.1h-17.6v16.5h-2.3V20.6z"/>
		<path d="M138.6,20.6h2.3v33h-2.3V20.6z"/>
		<path d="M150.6,20.6h2.4l13.9,23.2l3.7,6.6h0.2c-0.1-3.2-0.3-6.4-0.3-9.6V20.6h2.2v33h-2.4l-13.9-23.2l-3.7-6.6h-0.2
			c0.1,3.2,0.3,6.1,0.3,9.3v20.5h-2.2V20.6z"/>
		<path d="M180.3,37c0-10.5,5.9-17,14.6-17c4.4,0,7.2,2.1,9,3.9l-1.3,1.5c-1.7-1.9-4-3.4-7.6-3.4c-7.6,0-12.2,5.8-12.2,14.9
			c0,9.2,4.4,15.1,11.9,15.1c3,0,5.8-0.9,7.4-2.5V39.3h-7.9v-2h10.1v13.1c-2,2.2-5.4,3.7-9.7,3.7C185.9,54.2,180.3,47.5,180.3,37z"
			/>
	</g>
	<g>
		<path d="M14.2,90.6l2.8-3.3c2.3,2.2,5.4,3.6,8.8,3.6c3.9,0,6.1-1.8,6.1-4.3c0-3-2.2-3.8-5.3-5.1l-4.3-1.9c-3.1-1.2-6.6-3.5-6.6-8
			c0-4.8,4.3-8.4,10.4-8.4c3.8,0,7.3,1.5,9.7,3.9l-2.4,3c-2.1-1.7-4.3-2.7-7.4-2.7c-3.2,0-5.4,1.5-5.4,4c0,2.7,2.7,3.6,5.4,4.7
			l4.2,1.8c3.9,1.5,6.7,3.8,6.7,8.3c0,4.9-4.2,9-11.1,9C21.1,95.1,17.1,93.4,14.2,90.6z"/>
		<path d="M44,63.8h9.7c6.8,0,11.6,2.3,11.6,9.3c0,6.7-4.9,9.8-11.6,9.8h-5v11.7H44V63.8z M53.2,79c5,0,7.3-1.9,7.3-6
			c0-4.1-2.5-5.5-7.3-5.5h-4.5V79H53.2z"/>
		<path d="M72.8,63.8h19.4v4H77.5v8.7h12.4v4H77.5v10.1h15.1v4H72.8V63.8z"/>
		<path d="M98.8,79.2c0-10,5.9-16,14-16c3.8,0,6.7,1.8,8.6,3.8l-2.7,3c-1.6-1.6-3.5-2.6-6-2.6c-5.5,0-9.2,4.5-9.2,11.7
			c0,7.4,3.7,11.9,9.2,11.9c2.7,0,4.7-1.2,6.5-3.2l2.7,2.9c-2.4,2.9-5.6,4.5-9.7,4.5C104.8,95.1,98.8,89.4,98.8,79.2z"/>
		<path d="M128.3,90.6h7.5V67.8h-7.5v-4h19.8v4h-7.5v22.8h7.5v4h-19.8V90.6z"/>
		<path d="M163.7,63.8h5.5l10.2,30.8h-5l-5-16.8c-1-3.3-2-6.8-2.9-10.3h-0.2c-0.9,3.5-1.9,6.9-2.9,10.3l-5,16.8h-4.8L163.7,63.8z
			 M159.2,82h14.3v3.8h-14.3V82z"/>
		<path d="M186.5,63.8h4.7v26.8H206v4h-19.5V63.8z"/>
	</g>
	<g>
		<g>
			<path d="M47.9,138.2l-2,10H35.1c-0.1-6-0.1-11.8-0.1-17v-3.3c0-5.9,0-11.8,0.1-17.5l5.7-0.6v-4.2h-5.6H20.5h-4.8v4.2l4.9,0.5
				c0.1,5.9,0.1,11.7,0.1,17.6v4.4c0,4.3,0,9.8-0.1,15.5l-4.9,0.5v4.2h4.8h7.3h7.3h18.4l0.7-14.3H47.9z"/>
			<path d="M154.2,129.1h-3.4H137h-6v4.2l6.1,0.9c0.1,4.1,0.1,8,0.1,12.3v3.2c-0.2,0-0.4,0-0.6,0c-6.7,0-12.9-6.3-12.9-20.8
				c0-14.5,6.3-20.5,13.2-20.5c1.3,0,2.5,0.2,3.9,0.7l2.3,9.8h6l-0.3-11.5c-4.2-2.2-9.5-3.2-13.8-3.2c-17,0-26.3,9.4-26.3,24.8
				c0,16.2,10.2,25.1,25.2,25.1c6.6,0,11.4-1.2,16.5-4.2v-3c0-4.5,0-8.7,0.1-13l3.5-0.5V129.1z"/>
			<path d="M204.4,129.1c0,16.9-11,24.9-23.2,24.9s-23.2-8-23.2-24.9s11.1-24.9,23.2-24.9C193.3,104.2,204.4,112.1,204.4,129.1z
				 M181.2,149.6c6.1,0,8.4-8.1,8.4-20.5c0-12.3-2.3-20.6-8.4-20.6c-6.1,0-8.4,8.3-8.4,20.6C172.7,141.5,175.1,149.6,181.2,149.6z"
				/>
		</g>
		<path d="M105,124.9c-0.9-6.6-4.3-12.4-9.5-16.4c-5.3-4-11.8-5.7-18.3-4.8c-6.6,0.9-12.4,4.3-16.4,9.5c-4,5.3-5.7,11.8-4.8,18.3
			c0.9,6.6,4.3,12.4,9.5,16.4c4.4,3.3,9.6,5.1,14.9,5.1c1.1,0,2.2-0.1,3.4-0.2c6.6-0.9,12.4-4.3,16.4-9.5
			C104.2,138,105.9,131.5,105,124.9z M80.5,128.3l17.7,13.5c-3.4,4.5-8.6,7.7-14.7,8.6L80.5,128.3L67,146c-4.5-3.4-7.7-8.6-8.6-14.7
			L80.5,128.3l-17.7-13.5c3.4-4.5,8.6-7.7,14.7-8.6L80.5,128.3L94,110.5c4.5,3.4,7.7,8.6,8.6,14.7L80.5,128.3z"/>
	</g>
</g>
</svg>
